<svg xmlns="http://www.w3.org/2000/svg" viewBox="0 0 100 100" width="100%" height="100%">
  <rect x="5" y="5" width="90" height="90" rx="20" fill="#2B2D30" />
  
  <path d="M 30 25 C 20 25, 20 30, 20 40 C 20 45, 12 50, 12 50 C 12 50, 20 55, 20 60 C 20 70, 20 75, 30 75" 
        fill="none" stroke="#FFC107" stroke-width="6" stroke-linecap="round" stroke-linejoin="round" />
        
  <path d="M 70 25 C 80 25, 80 30, 80 40 C 80 45, 88 50, 88 50 C 88 50, 80 55, 80 60 C 80 70, 80 75, 70 75" 
        fill="none" stroke="#FFC107" stroke-width="6" stroke-linecap="round" stroke-linejoin="round" />

  <rect x="36" y="24" width="28" height="52" rx="3" fill="#FFFFFF" />
  
  <rect x="34" y="24" width="6" height="52" rx="2" fill="#4CAF50" />

  <line x1="44" y1="36" x2="58" y2="36" stroke="#B0BEC5" stroke-width="3" stroke-linecap="round" />
  <line x1="44" y1="48" x2="58" y2="48" stroke="#B0BEC5" stroke-width="3" stroke-linecap="round" />
  <line x1="44" y1="60" x2="53" y2="60" stroke="#B0BEC5" stroke-width="3" stroke-linecap="round" />
  
  <path d="M 52 24 L 58 24 L 58 34 L 55 31 L 52 34 Z" fill="#F44336" />
</svg>